HIERARCHY
ROOT Hips
{
  OFFSET -206.879 90.9677 1184.07
  CHANNELS 6 Xposition Yposition Zposition Zrotation Xrotation Yrotation
  JOINT Spine
  {
    OFFSET 0 8 0
    CHANNELS 6 Xposition Yposition Zposition Zrotation Xrotation Yrotation
    JOINT Spine1
    {
      OFFSET 0 8 0
      CHANNELS 6 Xposition Yposition Zposition Zrotation Xrotation Yrotation
      JOINT Spine2
      {
        OFFSET 0 8 0
        CHANNELS 6 Xposition Yposition Zposition Zrotation Xrotation Yrotation
        JOINT Spine3
        {
          OFFSET 0 8 0
          CHANNELS 6 Xposition Yposition Zposition Zrotation Xrotation Yrotation
          JOINT Neck
          {
            OFFSET 0 17 0
            CHANNELS 6 Xposition Yposition Zposition Zrotation Xrotation Yrotation
            JOINT Head
            {
              OFFSET 0 10.8 0
              CHANNELS 6 Xposition Yposition Zposition Zrotation Xrotation Yrotation
              End Site
              {
                OFFSET 0 20.25 0
              }
            }
          }
          JOINT LeftShoulder
          {
            OFFSET 5 17 0
            CHANNELS 6 Xposition Yposition Zposition Zrotation Xrotation Yrotation
            JOINT LeftShoulder2
            {
              OFFSET 6.45 0 0
              CHANNELS 6 Xposition Yposition Zposition Zrotation Xrotation Yrotation
              JOINT LeftArm
              {
                OFFSET 6.45 0 0
                CHANNELS 6 Xposition Yposition Zposition Zrotation Xrotation Yrotation
                JOINT LeftForeArm
                {
                  OFFSET 0 -32.4 -2
                  CHANNELS 6 Xposition Yposition Zposition Zrotation Xrotation Yrotation
                  JOINT LeftHand
                  {
                    OFFSET 0 -25.65 2
                    CHANNELS 6 Xposition Yposition Zposition Zrotation Xrotation Yrotation
                    JOINT LeftHandThumb1
                    {
                      OFFSET -0.5 -1.5 2.65
                      CHANNELS 6 Xposition Yposition Zposition Zrotation Xrotation Yrotation
                      JOINT LeftHandThumb2
                      {
                        OFFSET 0 -3.8 3.7
                        CHANNELS 6 Xposition Yposition Zposition Zrotation Xrotation Yrotation
                        JOINT LeftHandThumb3
                        {
                          OFFSET 0 -3 2.7
                          CHANNELS 6 Xposition Yposition Zposition Zrotation Xrotation Yrotation
                          End Site
                          {
                            OFFSET 0 -2.3 1.8
                          }
                        }
                      }
                    }
                    JOINT LeftHandIndex
                    {
                      OFFSET 0 -1.9 1.6
                      CHANNELS 6 Xposition Yposition Zposition Zrotation Xrotation Yrotation
                      JOINT LeftHandIndex1
                      {
                        OFFSET 0 -8.3 1.9
                        CHANNELS 6 Xposition Yposition Zposition Zrotation Xrotation Yrotation
                        JOINT LeftHandIndex2
                        {
                          OFFSET 0 -4.5 0
                          CHANNELS 6 Xposition Yposition Zposition Zrotation Xrotation Yrotation
                          JOINT LeftHandIndex3
                          {
                            OFFSET 0 -3.4 0
                            CHANNELS 6 Xposition Yposition Zposition Zrotation Xrotation Yrotation
                            End Site
                            {
                              OFFSET 0 -2.6 0
                            }
                          }
                        }
                      }
                    }
                    JOINT LeftHandMiddle
                    {
                      OFFSET -0.25 -2.2 0.4
                      CHANNELS 6 Xposition Yposition Zposition Zrotation Xrotation Yrotation
                      JOINT LeftHandMiddle1
                      {
                        OFFSET 0 -8.3 1
                        CHANNELS 6 Xposition Yposition Zposition Zrotation Xrotation Yrotation
                        JOINT LeftHandMiddle2
                        {
                          OFFSET 0 -4.65 0
                          CHANNELS 6 Xposition Yposition Zposition Zrotation Xrotation Yrotation
                          JOINT LeftHandMiddle3
                          {
                            OFFSET 0 -3.3 0
                            CHANNELS 6 Xposition Yposition Zposition Zrotation Xrotation Yrotation
                            End Site
                            {
                              OFFSET 0 -2.7 0
                            }
                          }
                        }
                      }
                    }
                    JOINT LeftHandRing
                    {
                      OFFSET -0.5 -2.15 -0.8
                      CHANNELS 6 Xposition Yposition Zposition Zrotation Xrotation Yrotation
                      JOINT LeftHandRing1
                      {
                        OFFSET 0 -7.75 -0.2
                        CHANNELS 6 Xposition Yposition Zposition Zrotation Xrotation Yrotation
                        JOINT LeftHandRing2
                        {
                          OFFSET 0 -3.8 0
                          CHANNELS 6 Xposition Yposition Zposition Zrotation Xrotation Yrotation
                          JOINT LeftHandRing3
                          {
                            OFFSET 0 -3.4 0
                            CHANNELS 6 Xposition Yposition Zposition Zrotation Xrotation Yrotation
                            End Site
                            {
                              OFFSET 0 -2.6 0
                            }
                          }
                        }
                      }
                    }
                    JOINT LeftHandPinky
                    {
                      OFFSET -0.75 -1.75 -1.85
                      CHANNELS 6 Xposition Yposition Zposition Zrotation Xrotation Yrotation
                      JOINT LeftHandPinky1
                      {
                        OFFSET 0 -7.15 -1
                        CHANNELS 6 Xposition Yposition Zposition Zrotation Xrotation Yrotation
                        JOINT LeftHandPinky2
                        {
                          OFFSET 0 -3 0
                          CHANNELS 6 Xposition Yposition Zposition Zrotation Xrotation Yrotation
                          JOINT LeftHandPinky3
                          {
                            OFFSET 0 -2.35 0
                            CHANNELS 6 Xposition Yposition Zposition Zrotation Xrotation Yrotation
                            End Site
                            {
                              OFFSET 0 -2.1 0
                            }
                          }
                        }
                      }
                    }
                  }
                }
              }
            }
          }
          JOINT RightShoulder
          {
            OFFSET -5 17 0
            CHANNELS 6 Xposition Yposition Zposition Zrotation Xrotation Yrotation
            JOINT RightShoulder2
            {
              OFFSET -6.45 0 0
              CHANNELS 6 Xposition Yposition Zposition Zrotation Xrotation Yrotation
              JOINT RightArm
              {
                OFFSET -6.45 0 0
                CHANNELS 6 Xposition Yposition Zposition Zrotation Xrotation Yrotation
                JOINT RightForeArm
                {
                  OFFSET 0 -32.4 -2
                  CHANNELS 6 Xposition Yposition Zposition Zrotation Xrotation Yrotation
                  JOINT RightHand
                  {
                    OFFSET 0 -25.65 2
                    CHANNELS 6 Xposition Yposition Zposition Zrotation Xrotation Yrotation
                    JOINT RightHandThumb1
                    {
                      OFFSET 0.5 -1.5 2.65
                      CHANNELS 6 Xposition Yposition Zposition Zrotation Xrotation Yrotation
                      JOINT RightHandThumb2
                      {
                        OFFSET 0 -3.8 3.7
                        CHANNELS 6 Xposition Yposition Zposition Zrotation Xrotation Yrotation
                        JOINT RightHandThumb3
                        {
                          OFFSET 0 -3 2.7
                          CHANNELS 6 Xposition Yposition Zposition Zrotation Xrotation Yrotation
                          End Site
                          {
                            OFFSET 0 -2.3 1.8
                          }
                        }
                      }
                    }
                    JOINT RightHandIndex
                    {
                      OFFSET 0 -1.9 1.6
                      CHANNELS 6 Xposition Yposition Zposition Zrotation Xrotation Yrotation
                      JOINT RightHandIndex1
                      {
                        OFFSET 0 -8.3 1.9
                        CHANNELS 6 Xposition Yposition Zposition Zrotation Xrotation Yrotation
                        JOINT RightHandIndex2
                        {
                          OFFSET 0 -4.5 0
                          CHANNELS 6 Xposition Yposition Zposition Zrotation Xrotation Yrotation
                          JOINT RightHandIndex3
                          {
                            OFFSET 0 -3.4 0
                            CHANNELS 6 Xposition Yposition Zposition Zrotation Xrotation Yrotation
                            End Site
                            {
                              OFFSET 0 -2.6 0
                            }
                          }
                        }
                      }
                    }
                    JOINT RightHandMiddle
                    {
                      OFFSET 0.25 -2.2 0.4
                      CHANNELS 6 Xposition Yposition Zposition Zrotation Xrotation Yrotation
                      JOINT RightHandMiddle1
                      {
                        OFFSET 0 -8.3 1
                        CHANNELS 6 Xposition Yposition Zposition Zrotation Xrotation Yrotation
                        JOINT RightHandMiddle2
                        {
                          OFFSET 0 -4.65 0
                          CHANNELS 6 Xposition Yposition Zposition Zrotation Xrotation Yrotation
                          JOINT RightHandMiddle3
                          {
                            OFFSET 0 -3.3 0
                            CHANNELS 6 Xposition Yposition Zposition Zrotation Xrotation Yrotation
                            End Site
                            {
                              OFFSET 0 -2.7 0
                            }
                          }
                        }
                      }
                    }
                    JOINT RightHandRing
                    {
                      OFFSET 0.5 -2.15 -0.8
                      CHANNELS 6 Xposition Yposition Zposition Zrotation Xrotation Yrotation
                      JOINT RightHandRing1
                      {
                        OFFSET 0 -7.75 -0.2
                        CHANNELS 6 Xposition Yposition Zposition Zrotation Xrotation Yrotation
                        JOINT RightHandRing2
                        {
                          OFFSET 0 -3.8 0
                          CHANNELS 6 Xposition Yposition Zposition Zrotation Xrotation Yrotation
                          JOINT RightHandRing3
                          {
                            OFFSET 0 -3.4 0
                            CHANNELS 6 Xposition Yposition Zposition Zrotation Xrotation Yrotation
                            End Site
                            {
                              OFFSET 0 -2.6 0
                            }
                          }
                        }
                      }
                    }
                    JOINT RightHandPinky
                    {
                      OFFSET 0.75 -1.75 -1.85
                      CHANNELS 6 Xposition Yposition Zposition Zrotation Xrotation Yrotation
                      JOINT RightHandPinky1
                      {
                        OFFSET 0 -7.15 -1
                        CHANNELS 6 Xposition Yposition Zposition Zrotation Xrotation Yrotation
                        JOINT RightHandPinky2
                        {
                          OFFSET 0 -3 0
                          CHANNELS 6 Xposition Yposition Zposition Zrotation Xrotation Yrotation
                          JOINT RightHandPinky3
                          {
                            OFFSET 0 -2.35 0
                            CHANNELS 6 Xposition Yposition Zposition Zrotation Xrotation Yrotation
                            End Site
                            {
                              OFFSET 0 -2.1 0
                            }
                          }
                        }
                      }
                    }
                  }
                }
              }
            }
          }
        }
      }
    }
  }
  JOINT LeftUpLeg
  {
    OFFSET 8 0 0
    CHANNELS 6 Xposition Yposition Zposition Zrotation Xrotation Yrotation
    JOINT LeftLeg
    {
      OFFSET 0 -45 -1
      CHANNELS 6 Xposition Yposition Zposition Zrotation Xrotation Yrotation
      JOINT LeftFoot
      {
        OFFSET 0 -41 -2
        CHANNELS 6 Xposition Yposition Zposition Zrotation Xrotation Yrotation
        JOINT LeftToeBase
        {
          OFFSET 0 -7.5 12.5
          CHANNELS 6 Xposition Yposition Zposition Zrotation Xrotation Yrotation
          JOINT LeftFootToe
          {
            OFFSET 0 0 4
            CHANNELS 6 Xposition Yposition Zposition Zrotation Xrotation Yrotation
            End Site
            {
              OFFSET 0 0 0
            }
          }
        }
      }
    }
  }
  JOINT RightUpLeg
  {
    OFFSET -8 0 0
    CHANNELS 6 Xposition Yposition Zposition Zrotation Xrotation Yrotation
    JOINT RightLeg
    {
      OFFSET 0 -45 -1
      CHANNELS 6 Xposition Yposition Zposition Zrotation Xrotation Yrotation
      JOINT RightFoot
      {
        OFFSET 0 -41 -2
        CHANNELS 6 Xposition Yposition Zposition Zrotation Xrotation Yrotation
        JOINT RightToeBase
        {
          OFFSET 0 -7.5 12.5
          CHANNELS 6 Xposition Yposition Zposition Zrotation Xrotation Yrotation
          JOINT RightFootToe
          {
            OFFSET 0 0 4
            CHANNELS 6 Xposition Yposition Zposition Zrotation Xrotation Yrotation
            End Site
            {
              OFFSET 0 0 0
            }
          }
        }
      }
    }
  }
}
MOTION
Frames:	3
Frame Time:	0.0111111
-206.936 91.0415 1183.91 3.80153 -3.70335 146.62 -1.13687e-13 8 0 16.0215 17.3721 1.09135 -1.13687e-13 8 0 2.6044 5.72671 0.291531 5.68434e-14 8 0 1.30519 2.86388 0.178249 -1.13687e-13 8 -2.27374e-13 1.30321 2.85954 0.178004 -5.68434e-14 17 0 -1.315 1.25164 0.266466 -5.68434e-14 10.8 2.27374e-13 -3.07945 2.91076 0.666921 5 17 0 -10.5358 -0.235148 2.56637 6.45 5.68434e-14 0 -0.210119 1.11544 2.70916 6.45 5.68434e-14 0 24.4011 22.1823 20.1781 0 -32.4 -2 -9.80283 -59.488 -34.5919 -2.27374e-13 -25.65 2 -16.4436 -55.6038 -55.7513 -0.5 -1.5 2.65 8.43648 43.1985 31.4703 5.68434e-14 -3.8 3.7 -0.297618 31.2619 0.0123107 5.68434e-14 -3 2.7 0.131958 10.7907 0.0162169 -2.27374e-13 -1.9 1.6 3.18055e-15 0 3.18055e-15 1.13687e-13 -8.3 1.9 -0.977279 7.46198 0.0882556 -1.13687e-13 -4.5 5.68434e-14 -19.0797 -0.102329 0.359715 0 -3.4 0 -15.0148 -0.130342 0.220709 -0.25 -2.2 0.4 3.18055e-15 0 3.18055e-15 -4.54747e-13 -8.3 1 -1.951 9.72857 0.362166 -3.41061e-13 -4.65 -8.52651e-14 -7.39155 0.00667655 0.230048 2.27374e-13 -3.3 5.68434e-14 -54.807 -1.23044 0.8111 -0.5 -2.15 -0.8 3.18055e-15 0 3.18055e-15 -1.13687e-13 -7.75 -0.2 -3.95764 15.0935 1.05739 -3.41061e-13 -3.8 5.68434e-14 -35.0475 0.0135009 -0.00213322 0 -3.4 0 -90.0002 0.00165684 0.000689645 -0.75 -1.75 -1.85 3.18055e-15 0 3.18055e-15 0 -7.15 -1 -5.20537 18.1311 1.56002 1.13687e-13 -3 -5.68434e-14 -3.18055e-15 1.27222e-14 4.77083e-15 0 -2.35 2.84217e-14 6.36111e-15 3.18055e-15 -0 -5 17 0 -2.32517 2.67404 5.74387 -6.45 0 0 -0.742837 -0.743931 -2.25693 -6.45 0 2.27374e-13 -36.1154 -2.68306 -12.4844 0 -32.4 -2 1.29237 -34.9225 12.8502 -2.84217e-14 -25.65 2 -0.794027 -20.8946 30.6789 0.5 -1.5 2.65 2.6558 12.273 -91.2359 -4.54747e-13 -3.8 3.7 0.110132 34.4818 0.00904839 0 -3 2.7 0.0349166 54.1662 -0.0288144 -5.68434e-14 -1.9 1.6 8.74653e-15 0 -6.36111e-15 5.68434e-14 -8.3 1.9 20.6048 23.3703 -4.70311 1.13687e-13 -4.5 -2.27374e-13 61.3735 -0.0018206 0.00300403 2.84217e-14 -3.4 0 43.2562 0.00654602 0.0071468 0.25 -2.2 0.4 8.74653e-15 0 -6.36111e-15 0 -8.3 1 33.2752 12.1494 -4.91657 0 -4.65 2.27374e-13 76.8544 -0.0017019 0.00411284 0 -3.3 2.27374e-13 60.856 -0.00177228 0.0021756 0.5 -2.15 -0.8 8.74653e-15 0 -6.36111e-15 5.68434e-14 -7.75 -0.2 53.9164 4.38206 -5.66449 0 -3.8 1.13687e-13 82.7089 -0.00292046 -0.00018601 -2.13163e-14 -3.4 -2.27374e-13 70.9525 -0.00373735 0.00659462 0.75 -1.75 -1.85 8.74653e-15 0 -6.36111e-15 0 -7.15 -1 67.0585 -3.12443 -3.82116 0 -3 1.13687e-13 60.6511 -0.0068177 -0.00652724 0 -2.35 -1.13687e-13 42.6277 -0.00620346 -0.00330575 8 1.42109e-14 0 8.20999 -25.2482 1.45004 -1.13687e-13 -45 -1 0.000849842 14.7981 0.12138 -2.27374e-13 -41 -2 -1.67871 6.82119 24.686 5.68434e-14 -7.5 12.5 9.93923e-17 3.97569e-16 -1.59028e-15 2.84217e-14 0 4 -4.34522 -13.9332 11.0796 -8 -1.42109e-14 0 -1.5677 -5.01305 -28.5575 4.54747e-13 -45 -1 -0.186292 18.7744 1.57149 -2.27374e-13 -41 -2 3.98091 -12.0916 23.2959 2.27374e-13 -7.5 12.5 -3.88251e-19 0 3.18055e-15 -1.13687e-13 0 4 2.24809 9.30604 11.491 
-206.991 91.0183 1183.74 3.82613 -3.75649 146.218 -2.27374e-13 8 0 15.7125 17.4617 1.1023 -1.13687e-13 8 0 2.54843 5.71346 0.306597 1.7053e-13 8 -2.27374e-13 1.2774 2.85718 0.185001 5.68434e-14 8 0 1.27548 2.8529 0.184738 0 17 0 -1.33491 1.26453 0.338665 -1.13687e-13 10.8 2.27374e-13 -3.12855 2.93804 0.836595 5 17 0 -10.6475 -0.336116 2.8807 6.45 1.13687e-13 0 -0.209055 1.09555 2.70275 6.45 0 0 24.3446 22.644 20.3504 0 -32.4 -2 -11.1154 -60.1949 -35.7963 0 -25.65 2 -16.4094 -55.6447 -55.6378 -0.5 -1.5 2.65 11.0806 41.7572 26.9965 2.84217e-14 -3.8 3.7 -0.294903 30.8683 0.0248857 2.84217e-14 -3 2.7 0.292229 18.0325 0.0168814 -2.27374e-13 -1.9 1.6 6.36111e-15 0 -0 -1.13687e-13 -8.3 1.9 -0.729503 6.44855 0.0623277 1.13687e-13 -4.5 -1.13687e-13 -17.7852 -0.0948732 0.292085 0 -3.4 0 -14.1768 -0.11256 0.1755 -0.25 -2.2 0.4 6.36111e-15 0 -0 -5.68434e-13 -8.3 1 -2.0412 9.4139 0.399416 -3.41061e-13 -4.65 0 -5.26175 -0.0136159 0.173895 2.27374e-13 -3.3 0 -43.4137 -1.1696 0.844933 -0.5 -2.15 -0.8 6.36111e-15 0 -0 0 -7.75 -0.2 -4.73535 16.2904 1.32334 -1.13687e-13 -3.8 -5.68434e-14 -33.6587 -0.00269978 -0.0164547 0 -3.4 2.84217e-14 -90.0002 0.00165684 0.000689645 -0.75 -1.75 -1.85 6.36111e-15 0 -0 0 -7.15 -1 -6.43324 20.0759 2.03117 0 -3 0 -0.448572 0.00605055 0.0107369 0 -2.35 5.68434e-14 -0.427459 0.00566129 0.0103313 -5 17 0 -2.44009 2.6216 5.94458 -6.45 0 2.27374e-13 -0.733785 -0.743948 -2.22423 -6.45 0 0 -35.8627 -2.66413 -12.5458 5.68434e-14 -32.4 -2 1.55674 -35.2377 12.7497 1.42109e-14 -25.65 2 -0.768699 -20.3899 29.8454 0.5 -1.5 2.65 2.51016 11.9466 -89.9131 0 -3.8 3.7 0.110157 34.3509 0.00903423 -2.27374e-13 -3 2.7 0.0349166 54.1662 -0.0288144 0 -1.9 1.6 5.56597e-15 3.18055e-15 -3.18055e-15 5.68434e-14 -8.3 1.9 20.4108 23.4157 -4.6694 0 -4.5 0 61.5755 -0.0018206 0.00300403 -5.68434e-14 -3.4 0 43.4346 0.00654602 0.0071468 0.25 -2.2 0.4 5.56597e-15 3.18055e-15 -3.18055e-15 0 -8.3 1 33.2675 12.1129 -4.90923 0 -4.65 2.27374e-13 76.9717 -0.0017019 0.00411284 2.84217e-14 -3.3 0 61.0343 -0.00177228 0.0021756 0.5 -2.15 -0.8 5.56597e-15 3.18055e-15 -3.18055e-15 5.68434e-14 -7.75 -0.2 53.9945 4.4 -5.69272 0 -3.8 0 82.6203 -0.00292046 -0.00018601 -1.42109e-14 -3.4 -2.27374e-13 70.7773 -0.00373735 0.00659462 0.75 -1.75 -1.85 5.56597e-15 3.18055e-15 -3.18055e-15 0 -7.15 -1 67.3014 -3.08628 -3.88737 -1.13687e-13 -3 3.41061e-13 60.4748 -0.0068177 -0.00652724 2.84217e-14 -2.35 -1.13687e-13 42.4775 -0.00620346 -0.00330575 8 0 0 8.26675 -25.2441 1.21623 -5.68434e-14 -45 -1 0.00688386 15.0652 0.0960615 0 -41 -2 -1.66487 6.12028 24.6601 2.84217e-14 -7.5 12.5 0 0 -1.59028e-15 5.68434e-14 0 4 -4.18842 -13.7158 11.5463 -8 0 2.27374e-13 -1.66094 -4.99296 -28.6833 0 -45 -1 -0.185691 18.8255 1.56552 1.13687e-13 -41 -2 4.1079 -12.0746 23.691 2.27374e-13 -7.5 12.5 0 3.88251e-19 -0 -1.13687e-13 0 4 2.20879 9.31048 11.5425 
-207.049 90.9926 1183.58 3.84717 -3.81133 145.801 -1.13687e-13 8 0 15.3891 17.5652 1.1229 -1.13687e-13 8 0 2.49147 5.70335 0.324024 1.7053e-13 8 2.27374e-13 1.24915 2.85205 0.192927 0 8 2.27374e-13 1.24729 2.84781 0.192679 0 17 2.27374e-13 -1.35084 1.26735 0.40733 -2.27374e-13 10.8 0 -3.16815 2.94195 0.997515 5 17 0 -10.748 -0.439966 3.19485 6.45 5.68434e-14 0 -0.211227 1.07483 2.6974 6.45 0 0 24.3462 22.9899 20.2478 0 -32.4 -2 -12.155 -60.752 -36.7881 -2.27374e-13 -25.65 2 -16.3743 -55.6849 -55.5225 -0.5 -1.5 2.65 12.9885 40.0933 23.3035 0 -3.8 3.7 -0.299628 30.5652 0.027138 2.84217e-14 -3 2.7 0.385943 25.1915 0.0667084 -2.27374e-13 -1.9 1.6 6.36111e-15 0 6.36111e-15 -1.13687e-13 -8.3 1.9 -0.551365 5.76783 0.0490792 -1.13687e-13 -4.5 1.13687e-13 -17.4527 -0.0443309 0.169197 0 -3.4 0 -13.9716 -0.0583133 0.103216 -0.25 -2.2 0.4 6.36111e-15 0 6.36111e-15 -4.54747e-13 -8.3 1 -2.17965 9.31388 0.449016 -2.27374e-13 -4.65 -1.13687e-13 -3.69362 -0.0162804 0.0974606 2.27374e-13 -3.3 5.68434e-14 -43.4113 -0.65736 0.48047 -0.5 -2.15 -0.8 6.36111e-15 0 6.36111e-15 0 -7.75 -0.2 -5.54381 17.4809 1.61895 -1.13687e-13 -3.8 2.84217e-14 -32.7885 -0.0123507 -0.0188056 0 -3.4 2.84217e-14 -90.0002 0.00165684 0.000689645 -0.75 -1.75 -1.85 6.36111e-15 0 6.36111e-15 1.13687e-13 -7.15 -1 -7.70078 21.9078 2.55814 -1.13687e-13 -3 -5.68434e-14 -1.5284 0.0218756 0.0189467 0 -2.35 5.68434e-14 -1.3934 0.0196406 0.0182036 -5 17 2.27374e-13 -2.52374 2.57602 6.16175 -6.45 5.68434e-14 0 -0.712745 -0.740474 -2.18314 -6.45 5.68434e-14 2.27374e-13 -35.668 -2.66508 -12.6127 5.68434e-14 -32.4 -2 1.84843 -35.5596 12.6661 1.42109e-14 -25.65 2 -0.768993 -19.8732 28.9977 0.5 -1.5 2.65 2.37894 11.6323 -88.615 -2.27374e-13 -3.8 3.7 0.110182 34.2168 0.00901983 -2.27374e-13 -3 2.7 0.0349166 54.1662 -0.0288144 0 -1.9 1.6 8.74653e-15 3.18055e-15 -3.18055e-15 0 -8.3 1.9 20.2134 23.4592 -4.63444 0 -4.5 0 61.7756 -0.0018206 0.00300403 2.84217e-14 -3.4 2.27374e-13 43.612 0.00654602 0.0071468 0.25 -2.2 0.4 8.74653e-15 3.18055e-15 -3.18055e-15 0 -8.3 1 33.2662 12.0706 -4.90117 0 -4.65 -2.27374e-13 77.0804 -0.0017019 0.00411284 0 -3.3 0 61.1985 -0.00177228 0.0021756 0.5 -2.15 -0.8 8.74653e-15 3.18055e-15 -3.18055e-15 1.13687e-13 -7.75 -0.2 54.0868 4.4193 -5.72403 -1.13687e-13 -3.8 0 82.5151 -0.00292046 -0.00018601 -2.84217e-14 -3.4 -2.27374e-13 70.5715 -0.00373735 0.00659462 0.75 -1.75 -1.85 8.74653e-15 3.18055e-15 -3.18055e-15 0 -7.15 -1 67.5577 -3.04197 -3.96056 0 -3 0 60.2925 -0.0068177 -0.00652724 2.84217e-14 -2.35 -2.27374e-13 42.323 -0.00620346 -0.00330575 8 0 0 8.31908 -25.251 0.970055 -1.13687e-13 -45 -1 0.0110151 15.3535 0.0772902 0 -41 -2 -1.64743 5.40714 24.6361 5.68434e-14 -7.5 12.5 1.98785e-16 1.19271e-15 -0 2.84217e-14 0 4 -4.02939 -13.4923 12.003 -8 0 0 -1.76432 -4.985 -28.7927 3.41061e-13 -45 -1 -0.183822 18.8933 1.55434 -2.27374e-13 -41 -2 4.24054 -12.0615 24.091 2.27374e-13 -7.5 12.5 -5.82377e-19 -3.88251e-19 3.18055e-15 0 0 4 2.16912 9.33538 11.591 
